<svg width="80" height="80" viewBox="0 0 80 80" fill="none" xmlns="http://www.w3.org/2000/svg">
<mask id="mask0_190_364" style="mask-type:alpha" maskUnits="userSpaceOnUse" x="0" y="0" width="80" height="80">
<rect width="80" height="80" fill="#D9D9D9"/>
</mask>
<g mask="url(#mask0_190_364)">
<path d="M40 73.3334C35.8333 73.3334 31.9306 72.5417 28.2917 70.9584C24.6528 69.375 21.4861 67.2362 18.7917 64.5417C16.0972 61.8473 13.9583 58.6806 12.375 55.0417C10.7917 51.4028 10 47.5 10 43.3334C10 39.1667 10.7917 35.2639 12.375 31.625C13.9583 27.9862 16.0972 24.8195 18.7917 22.125C21.4861 19.4306 24.6528 17.2917 28.2917 15.7084C31.9306 14.125 35.8333 13.3334 40 13.3334C44.1667 13.3334 48.0694 14.125 51.7083 15.7084C55.3472 17.2917 58.5139 19.4306 61.2083 22.125C63.9028 24.8195 66.0417 27.9862 67.625 31.625C69.2083 35.2639 70 39.1667 70 43.3334C70 47.5 69.2083 51.4028 67.625 55.0417C66.0417 58.6806 63.9028 61.8473 61.2083 64.5417C58.5139 67.2362 55.3472 69.375 51.7083 70.9584C48.0694 72.5417 44.1667 73.3334 40 73.3334ZM49.3333 57.3334L54 52.6667L43.3333 42V26.6667H36.6667V44.6667L49.3333 57.3334ZM18.6667 7.83337L23.3333 12.5L9.16667 26.6667L4.5 22L18.6667 7.83337ZM61.3333 7.83337L75.5 22L70.8333 26.6667L56.6667 12.5L61.3333 7.83337ZM40 66.6667C46.5 66.6667 52.0139 64.4028 56.5417 59.875C61.0694 55.3473 63.3333 49.8334 63.3333 43.3334C63.3333 36.8334 61.0694 31.3195 56.5417 26.7917C52.0139 22.2639 46.5 20 40 20C33.5 20 27.9861 22.2639 23.4583 26.7917C18.9306 31.3195 16.6667 36.8334 16.6667 43.3334C16.6667 49.8334 18.9306 55.3473 23.4583 59.875C27.9861 64.4028 33.5 66.6667 40 66.6667Z" fill="#F6F2FF"/>
</g>
</svg>
