<svg width="80" height="80" viewBox="0 0 80 80" fill="none" xmlns="http://www.w3.org/2000/svg">
<mask id="mask0_190_341" style="mask-type:alpha" maskUnits="userSpaceOnUse" x="0" y="0" width="80" height="80">
<rect width="80" height="80" fill="#D9D9D9"/>
</mask>
<g mask="url(#mask0_190_341)">
<path d="M39.9997 40C41.833 40 43.4025 39.3472 44.708 38.0417C46.0136 36.7361 46.6663 35.1667 46.6663 33.3334C46.6663 31.5 46.0136 29.9306 44.708 28.625C43.4025 27.3195 41.833 26.6667 39.9997 26.6667C38.1663 26.6667 36.5969 27.3195 35.2913 28.625C33.9858 29.9306 33.333 31.5 33.333 33.3334C33.333 35.1667 33.9858 36.7361 35.2913 38.0417C36.5969 39.3472 38.1663 40 39.9997 40ZM39.9997 64.5C46.7775 58.2778 51.8052 52.625 55.083 47.5417C58.3608 42.4584 59.9997 37.9445 59.9997 34C59.9997 27.9445 58.0691 22.9861 54.208 19.125C50.3469 15.2639 45.6108 13.3334 39.9997 13.3334C34.3886 13.3334 29.6525 15.2639 25.7913 19.125C21.9302 22.9861 19.9997 27.9445 19.9997 34C19.9997 37.9445 21.6386 42.4584 24.9163 47.5417C28.1941 52.625 33.2219 58.2778 39.9997 64.5ZM39.9997 73.3334C31.0552 65.7222 24.3747 58.6528 19.958 52.125C15.5413 45.5972 13.333 39.5556 13.333 34C13.333 25.6667 16.0136 19.0278 21.3747 14.0834C26.7358 9.13891 32.9441 6.66669 39.9997 6.66669C47.0552 6.66669 53.2636 9.13891 58.6247 14.0834C63.9858 19.0278 66.6663 25.6667 66.6663 34C66.6663 39.5556 64.458 45.5972 60.0413 52.125C55.6247 58.6528 48.9441 65.7222 39.9997 73.3334Z" fill="white"/>
</g>
</svg>
